<svg xmlns="http://www.w3.org/2000/svg" xmlns:xlink="http://www.w3.org/1999/xlink" class="dark:text-white" width="30" height="24"><defs><path id="a" d="M0 24 19.626 0h6.839v24z"/></defs><g fill="none" fill-rule="evenodd"><g transform="translate(3.535)"><mask id="b" fill="#fff"><use xlink:href="#a"/></mask><g fill="currentColor" fill-rule="nonzero" mask="url(#b)"><path d="M12.612 24H-1.953V-.008h15.612c3.94.043 6.73.896 8.373 2.557.988 1.02 1.483 2.242 1.483 3.665 0 1.466-.495 2.644-1.483 3.534-.553.5-1.367.956-2.442 1.368 1.642.446 2.882 1.151 3.717 2.118.836.966 1.254 2.139 1.254 3.518 0 1.422-.48 2.698-1.439 3.828a7.827 7.827 0 0 1-2.29 1.889c-1.031.586-2.249.988-3.652 1.205a29.92 29.92 0 0 1-4.568.326Zm2.95-10.434H.603v6.275h14.88c1.048 0 1.864-.139 2.448-.416 1.06-.51 1.589-1.49 1.589-2.937 0-1.225-.514-2.065-1.54-2.523-.573-.256-1.379-.389-2.416-.4Zm2.481-4.207c.649-.433.973-1.209.973-2.328 0-1.24-.432-2.057-1.297-2.454-.746-.277-1.697-.415-2.854-.415H2.325v5.865h13.157c1.048 0 1.902-.222 2.561-.668Z"/></g></g><path fill="#FFF400" d="m0 23.995 4.209-5.07v-5.319h4.33l2.842-3.559H4.209V4.155h12.063L19.626 0H0z"/></g></svg>
